<?xml version="1.0" standalone="no"?>
<!DOCTYPE svg PUBLIC "-//W3C//DTD SVG 20010904//EN"
 "http://www.w3.org/TR/2001/REC-SVG-20010904/DTD/svg10.dtd">
<svg version="1.0" xmlns="http://www.w3.org/2000/svg"
 width="512.000000pt" height="512.000000pt" viewBox="0 0 512.000000 512.000000"
 preserveAspectRatio="xMidYMid meet">

<g transform="translate(0.000000,512.000000) scale(0.100000,-0.100000)"
fill="#000000" stroke="none">
<path d="M1959 5105 c-149 -28 -277 -89 -363 -170 -30 -30 -59 -45 -105 -58
-152 -42 -269 -141 -339 -287 -80 -165 -102 -313 -102 -675 l0 -235 -62 0
c-76 0 -119 -20 -162 -73 -31 -39 -31 -40 -31 -160 0 -110 2 -127 25 -171 48
-95 119 -159 217 -196 42 -16 48 -22 68 -76 56 -150 150 -303 266 -434 l68
-78 -143 -110 c-127 -98 -151 -112 -218 -131 -138 -39 -268 -98 -401 -183 -85
-55 -107 -79 -107 -118 0 -33 38 -70 71 -70 14 0 63 25 109 56 104 68 197 113
318 154 l93 31 227 -168 c299 -222 285 -213 325 -213 27 0 46 10 86 46 29 26
53 45 55 43 2 -2 13 -37 24 -77 l20 -74 -129 -429 c-71 -235 -129 -438 -129
-450 0 -12 32 -82 70 -155 39 -73 70 -135 70 -138 0 -3 -173 -6 -385 -6 l-385
0 0 249 c0 236 -1 250 -21 275 -26 33 -79 36 -109 6 -19 -19 -20 -33 -20 -275
l0 -255 -255 0 -255 0 0 428 c0 462 5 510 55 620 14 32 39 78 56 103 16 25 29
56 29 68 0 55 -51 91 -100 71 -32 -13 -100 -121 -136 -216 -50 -134 -54 -180
-54 -665 0 -497 1 -501 62 -539 33 -20 46 -20 1453 -20 l1421 0 74 -76 c41
-41 92 -84 112 -95 68 -35 146 -20 201 39 26 27 31 29 58 19 25 -10 29 -17 29
-48 0 -77 43 -148 107 -175 45 -19 331 -19 376 0 65 28 107 93 107 165 0 33 4
40 30 51 28 11 32 10 66 -20 61 -53 125 -65 188 -35 42 20 252 232 265 269 24
61 11 122 -37 177 -27 32 -28 36 -15 66 11 28 18 33 48 33 69 0 140 49 164
113 17 43 14 330 -3 370 -26 61 -98 107 -167 107 -23 0 -29 6 -39 36 -11 33
-10 38 13 62 50 53 61 126 28 190 -27 52 -218 238 -263 257 -21 8 -49 15 -63
15 -34 0 -94 -26 -122 -52 -19 -18 -25 -19 -57 -8 -32 10 -36 15 -36 45 0 74
-55 147 -123 166 -21 6 -108 9 -192 8 l-154 -2 -73 47 c-102 66 -237 129 -343
161 -49 15 -98 30 -108 34 -29 10 -306 225 -307 236 0 6 18 29 41 50 100 98
207 263 269 419 36 88 37 89 86 107 105 40 198 138 229 242 8 28 15 87 15 131
0 98 -21 151 -75 192 -32 24 -49 29 -111 32 l-72 4 -5 307 c-5 337 -10 371
-72 508 -44 95 -84 153 -169 242 -164 171 -378 290 -626 347 -135 32 -341 40
-451 19z m341 -150 c374 -61 692 -295 794 -584 30 -86 30 -87 34 -348 l4 -263
-89 0 c-156 0 -231 37 -408 200 -182 167 -293 239 -430 276 -92 25 -498 32
-584 10 -137 -35 -181 -100 -240 -350 -11 -49 -29 -105 -38 -125 -22 -43 -75
-81 -116 -81 l-29 0 5 288 c6 310 13 372 63 500 57 145 151 230 284 258 68 14
80 20 130 68 69 67 103 89 171 116 124 50 282 62 449 35z m-180 -855 c74 -12
192 -64 254 -112 22 -18 93 -79 156 -137 207 -187 296 -231 484 -239 l118 -5
-5 -211 c-6 -238 -13 -278 -81 -422 -116 -246 -326 -462 -561 -579 -225 -112
-412 -112 -642 0 -242 118 -481 374 -580 621 -52 128 -64 203 -61 372 l3 147
48 7 c96 13 179 75 226 167 11 22 36 103 55 180 38 153 60 196 109 210 44 13
397 13 477 1z m-1070 -716 l0 -146 -22 14 c-13 8 -38 36 -55 62 -30 44 -33 55
-33 125 0 43 3 81 7 84 3 4 28 7 55 7 l48 0 0 -146z m2338 76 c4 -79 -17 -138
-64 -186 -19 -19 -38 -34 -42 -34 -4 0 -6 65 -4 145 l3 146 52 -3 52 -3 3 -65z
m-483 -1156 c69 -53 125 -100 125 -104 0 -8 -359 -277 -382 -285 -17 -7 -304
254 -291 265 4 4 33 15 63 25 75 24 211 94 290 149 36 25 66 45 68 45 2 1 59
-42 127 -95z m-1290 50 c85 -60 176 -106 282 -144 l103 -36 -146 -134 c-136
-124 -148 -132 -168 -120 -39 24 -375 275 -375 280 0 8 233 188 244 189 6 1
33 -15 60 -35z m732 -398 c-2 -6 -15 -55 -28 -108 l-23 -98 -132 0 -132 0 -22
90 c-12 49 -23 96 -24 104 0 8 41 53 93 100 l94 85 89 -81 c49 -45 87 -86 85
-92z m933 134 c97 -32 267 -115 312 -152 24 -21 26 -28 21 -71 -5 -40 -10 -50
-35 -63 -29 -15 -31 -14 -57 10 -32 30 -91 56 -128 56 -53 -1 -108 -38 -210
-141 -100 -102 -133 -152 -133 -204 0 -36 26 -95 57 -127 21 -22 24 -31 16
-55 -8 -24 -16 -29 -59 -34 -84 -11 -130 -43 -159 -112 -18 -43 -21 -298 -5
-357 11 -41 61 -94 103 -109 16 -6 48 -11 72 -11 38 0 44 -3 53 -27 8 -24 5
-33 -25 -66 -18 -20 -39 -57 -45 -82 l-12 -45 -252 0 -252 0 74 140 c41 77 74
148 74 158 0 9 -20 85 -45 167 -47 158 -64 185 -113 185 -33 0 -72 -37 -72
-68 0 -13 17 -81 37 -149 l37 -126 -73 -141 c-41 -77 -78 -147 -84 -153 -7
-10 -62 -13 -216 -13 l-206 0 -81 154 -82 154 94 314 c52 172 106 350 120 396
l25 82 133 0 133 0 28 -102 c36 -130 42 -143 72 -157 34 -16 47 -14 77 10 35
27 34 52 -8 202 l-35 122 22 88 22 87 63 -55 c49 -43 71 -55 96 -55 37 0 47 7
345 228 113 84 205 152 207 152 1 0 43 -13 94 -30z m770 -285 c3 -38 8 -75 13
-82 4 -6 40 -24 80 -39 39 -15 81 -33 92 -41 39 -26 78 -16 125 32 24 25 49
45 54 45 13 0 196 -181 196 -194 0 -5 -20 -31 -45 -57 -25 -26 -45 -56 -45
-65 0 -21 77 -215 91 -229 5 -5 42 -12 82 -15 l72 -5 0 -140 0 -140 -71 -5
c-39 -3 -78 -11 -86 -18 -9 -7 -26 -40 -38 -75 -12 -34 -29 -71 -36 -82 -8
-11 -14 -36 -14 -55 0 -29 8 -44 45 -80 25 -24 45 -49 45 -54 0 -13 -181 -196
-194 -196 -5 0 -33 23 -63 51 -44 42 -59 50 -81 46 -36 -7 -191 -72 -206 -87
-6 -6 -13 -46 -16 -88 l-5 -77 -140 0 -140 0 -3 76 c-2 60 -7 80 -22 94 -25
22 -178 85 -208 85 -14 0 -44 -19 -76 -50 -29 -27 -57 -50 -62 -50 -12 0 -194
182 -194 195 0 6 23 33 50 60 61 60 63 85 20 177 -16 34 -30 68 -30 74 0 6
-10 20 -23 32 -18 17 -37 22 -97 24 l-75 3 0 140 0 140 76 3 c57 2 80 7 92 20
18 20 87 192 87 216 0 10 -23 41 -51 71 -41 44 -49 57 -41 72 13 24 177 183
189 183 5 0 27 -18 48 -41 62 -64 71 -65 183 -18 130 56 132 57 132 139 0 37
3 70 7 74 4 3 68 5 142 4 l136 -3 5 -70z"/>
<path d="M1663 3475 c-47 -20 -83 -60 -83 -90 0 -68 51 -97 112 -65 47 24 76
25 107 4 80 -56 164 43 96 112 -52 52 -161 70 -232 39z"/>
<path d="M2485 3474 c-55 -30 -75 -55 -75 -94 0 -45 27 -73 70 -73 16 0 38 7
48 16 25 23 57 21 108 -4 40 -19 45 -19 73 -4 59 30 53 100 -11 142 -52 35
-164 44 -213 17z"/>
<path d="M1880 2993 c-40 -13 -62 -30 -82 -61 -17 -28 -20 -45 -16 -105 8
-126 82 -227 206 -285 52 -24 68 -27 172 -27 138 1 201 21 279 91 73 66 106
139 106 236 0 68 -3 79 -25 103 -48 52 -67 55 -357 54 -147 0 -275 -3 -283 -6z
m520 -163 c0 -26 -32 -90 -57 -112 -57 -52 -184 -74 -274 -47 -73 22 -139 97
-139 159 0 20 5 20 235 20 230 0 235 0 235 -20z"/>
<path d="M3843 1320 c-62 -13 -114 -43 -162 -95 -60 -66 -83 -122 -84 -210 -2
-268 311 -408 520 -231 18 15 47 57 65 94 28 57 33 77 33 137 -2 196 -182 344
-372 305z m109 -152 c82 -24 134 -123 108 -202 -14 -45 -79 -103 -123 -111
-111 -21 -215 90 -186 198 13 50 55 95 104 112 50 18 49 18 97 3z"/>
</g>
</svg>
